<?xml version="1.0" encoding="UTF-8"?>
<!DOCTYPE svg PUBLIC "-//W3C//DTD SVG 1.1//EN" "http://www.w3.org/Graphics/SVG/1.1/DTD/svg11.dtd">
<svg xmlns="http://www.w3.org/2000/svg" version="1.1" width="500px" height="500px" style="shape-rendering:geometricPrecision; text-rendering:geometricPrecision; image-rendering:optimizeQuality; fill-rule:evenodd; clip-rule:evenodd" xmlns:xlink="http://www.w3.org/1999/xlink">
<g><path style="opacity:1" fill="#161f2b" d="M 30.5,15.5 C 176.5,15.3333 322.5,15.5 468.5,16C 475.333,18.8333 480.167,23.6667 483,30.5C 483.667,176.5 483.667,322.5 483,468.5C 480.167,475.333 475.333,480.167 468.5,483C 322.5,483.667 176.5,483.667 30.5,483C 23.6667,480.167 18.8333,475.333 16,468.5C 15.3333,322.5 15.3333,176.5 16,30.5C 19.0214,23.6468 23.8548,18.6468 30.5,15.5 Z"/></g>
<g><path style="opacity:1" fill="#009185" d="M 149.5,153.5 C 171.833,153.5 194.167,153.5 216.5,153.5C 216.5,159.833 216.5,166.167 216.5,172.5C 209.984,172.478 203.651,173.478 197.5,175.5C 215.237,226.379 232.571,277.379 249.5,328.5C 267.027,277.253 284.36,225.92 301.5,174.5C 295.453,174.224 289.453,173.557 283.5,172.5C 283.5,166.167 283.5,159.833 283.5,153.5C 305.5,153.5 327.5,153.5 349.5,153.5C 349.5,159.833 349.5,166.167 349.5,172.5C 343.795,172.807 338.129,173.473 332.5,174.5C 308.722,237.724 285.222,301.058 262,364.5C 253.667,365.833 245.333,365.833 237,364.5C 213.863,301.423 190.53,238.423 167,175.5C 161.342,173.739 155.508,172.739 149.5,172.5C 149.5,166.167 149.5,159.833 149.5,153.5 Z"/></g>
</svg>
